<?xml version="1.0" encoding="utf-8"?>
<!-- Generator: Adobe Illustrator 25.3.1, SVG Export Plug-In . SVG Version: 6.00 Build 0)  -->
<svg version="1.1" id="Layer_1" xmlns="http://www.w3.org/2000/svg" xmlns:xlink="http://www.w3.org/1999/xlink" x="0px" y="0px"
	 viewBox="0 0 296.5 82.5" style="enable-background:new 0 0 296.5 82.5;" xml:space="preserve">
<style type="text/css">
	.st0{fill:#66CCCC;}
	.st1{fill:#6666CC;}
	.st2{fill:#FF6666;}
	.st3{fill:#FFCC00;}
</style>
<g>
	<polygon points="136.7,75.6 122.4,75.6 105.1,24.6 115.7,24.6 129.5,67.4 143.4,24.6 153.9,24.6 	"/>
	<rect x="162.5" y="24.6" width="10.2" height="51"/>
	<path d="M197.9,50.1c0,10.3,6.6,17.1,15.4,17.1s15.5-6.8,15.5-17.1S222.2,33,213.3,33S197.9,39.8,197.9,50.1z M214.6,76.6
		c-6.6,0-12.9-3.2-16.7-8.7v7.6h-10.2V0.1h10.2v32.2c3.8-5.4,10-8.7,16.7-8.7c13.9,0,24.4,10.9,24.4,26.5S228.5,76.6,214.6,76.6z"/>
	<path d="M256.5,46.2h29.9c-1.2-8.6-6.8-13.7-15-13.7S257.7,37.7,256.5,46.2z M296.3,53.6h-39.9c1.2,8.9,6.9,14.1,15.5,14.1
		c6.2,0,10.3-2.8,12.3-7.3h11c-3.1,10.5-12,16.3-23.7,16.3c-14.4,0-25-10.9-25-26.5s10.6-26.5,25-26.5s25,10.9,25,26.5
		C296.5,51.3,296.4,52.4,296.3,53.6z"/>
	<ellipse cx="167.6" cy="8.4" rx="8.4" ry="8.4"/>
	<path class="st0" d="M50.3,8.4C50.3,3.8,54,0,58.7,0c0,0,0,0,0,0H8.4C3.8,0,0,3.8,0,8.4s3.8,8.4,8.4,8.4h50.3
		C54,16.8,50.3,13,50.3,8.4C50.3,8.4,50.3,8.4,50.3,8.4z"/>
	<path class="st1" d="M53.4,69.7L28.2,26c2.4,4,1.2,9.1-2.8,11.5c-4,2.4-9.1,1.2-11.5-2.8c-0.1-0.1-0.1-0.2-0.2-0.4l25.1,43.7
		c2.2,4.1,7.3,5.6,11.4,3.3s5.6-7.3,3.3-11.4C53.5,69.9,53.4,69.8,53.4,69.7z"/>
	<path class="st2" d="M88,1.1c-4-2.3-9.1-1-11.4,3c0,0,0,0,0,0L51.4,47.8c2.3-4,7.4-5.4,11.5-3.1c4,2.3,5.4,7.4,3.1,11.5l25.1-43.7
		C93.4,8.6,92,3.5,88,1.1z"/>
	<ellipse class="st3" cx="58.7" cy="8.4" rx="8.4" ry="8.4"/>
	<ellipse class="st3" cx="21" cy="30.2" rx="8.4" ry="8.4"/>
	<ellipse class="st3" cx="58.7" cy="52" rx="8.4" ry="8.4"/>
</g>
</svg>
